<?xml version="1.0" standalone="no"?>
<svg xmlns:xlink="http://www.w3.org/1999/xlink" id="wave" style="transform:rotate(0deg); transition: 0.3s" viewBox="0 0 1440 490" version="1.1" xmlns="http://www.w3.org/2000/svg"><defs><linearGradient id="sw-gradient-0" x1="0" x2="0" y1="1" y2="0"><stop stop-color="rgba(243, 106, 62, 1)" offset="0%"/><stop stop-color="rgba(255, 179, 11, 1)" offset="100%"/></linearGradient></defs><path style="transform:translate(0, 0px); opacity:1" fill="url(#sw-gradient-0)" d="M0,98L48,138.8C96,180,192,261,288,269.5C384,278,480,212,576,187.8C672,163,768,180,864,204.2C960,229,1056,261,1152,228.7C1248,196,1344,98,1440,65.3C1536,33,1632,65,1728,89.8C1824,114,1920,131,2016,171.5C2112,212,2208,278,2304,277.7C2400,278,2496,212,2592,220.5C2688,229,2784,310,2880,359.3C2976,408,3072,425,3168,392C3264,359,3360,278,3456,261.3C3552,245,3648,294,3744,285.8C3840,278,3936,212,4032,187.8C4128,163,4224,180,4320,212.3C4416,245,4512,294,4608,285.8C4704,278,4800,212,4896,179.7C4992,147,5088,147,5184,155.2C5280,163,5376,180,5472,155.2C5568,131,5664,65,5760,49C5856,33,5952,65,6048,65.3C6144,65,6240,33,6336,16.3C6432,0,6528,0,6624,8.2C6720,16,6816,33,6864,40.8L6912,49L6912,490L6864,490C6816,490,6720,490,6624,490C6528,490,6432,490,6336,490C6240,490,6144,490,6048,490C5952,490,5856,490,5760,490C5664,490,5568,490,5472,490C5376,490,5280,490,5184,490C5088,490,4992,490,4896,490C4800,490,4704,490,4608,490C4512,490,4416,490,4320,490C4224,490,4128,490,4032,490C3936,490,3840,490,3744,490C3648,490,3552,490,3456,490C3360,490,3264,490,3168,490C3072,490,2976,490,2880,490C2784,490,2688,490,2592,490C2496,490,2400,490,2304,490C2208,490,2112,490,2016,490C1920,490,1824,490,1728,490C1632,490,1536,490,1440,490C1344,490,1248,490,1152,490C1056,490,960,490,864,490C768,490,672,490,576,490C480,490,384,490,288,490C192,490,96,490,48,490L0,490Z"/></svg>